<?xml version="1.0" encoding="UTF-8"?>
<svg id="Calque_1" xmlns="http://www.w3.org/2000/svg" version="1.1" viewBox="0 0 425.197 197.686">
  <!-- Generator: Adobe Illustrator 29.5.0, SVG Export Plug-In . SVG Version: 2.1.0 Build 137)  -->
  <defs>
    <style>
      .st0 {
        fill: #f15d51;
      }

      .st1 {
        fill: #fd1;
      }

      .st2 {
        fill: #5cd8b3;
      }

      .st3 {
        fill: #000fa0;
      }
    </style>
  </defs>
  <circle class="st0" cx="418.479" cy="136.748" r="6.718"/>
  <path class="st2" d="M402.084,0c-42.795,0-77.612,34.814-77.612,77.609v14.043c0,1.149.932,2.081,2.081,2.081h13.357c1.149,0,2.081-.932,2.081-2.081v-14.043c0-33.134,26.958-60.09,60.092-60.09,1.149,0,2.081-.932,2.081-2.081V2.081c0-1.149-.932-2.081-2.081-2.081Z"/>
  <path class="st1" d="M297.248,46.909c-24.62,0-44.651,20.032-44.651,44.654,0,1.149.932,2.081,2.081,2.081h13.357c1.149,0,2.081-.932,2.081-2.081,0-14.961,12.17-27.134,27.132-27.134s27.134,12.173,27.134,27.134c0,1.149.932,2.081,2.081,2.081h13.357c1.149,0,2.081-.932,2.081-2.081,0-24.622-20.032-44.654-44.654-44.654Z"/>
  <g>
    <path class="st3" d="M54.021,150.854c-10.361-.042-20.723.03-31.083-.054-1.67-.014-3.45-.309-4.982-.949-3.846-1.606-5.053-6.637-2.554-9.831.865-1.105,1.644-1.57,3.11-.681,6.93,4.206,14.42,5.499,22.435,4.18,14.273-2.349,26.234-15.941,26.539-30.299.148-6.97-1.736-13.366-5.116-18.664l12.756-10.149c1.954-1.554.854-4.701-1.642-4.701h-11.161c-.573,0-1.119.237-1.511.655l-5.78,6.163c-5.603-4.336-12.731-6.87-20.633-6.817-23.431.158-38.964,25.786-28.117,46.5.826,1.578.791,2.416-.423,3.741-6.22,6.789-7.641,16.771-3.526,25.021,4.184,8.387,11.254,12.557,20.465,12.769,10.433.241,20.877.058,31.315.077,4.311.008,7.16,2.668,7.124,6.593-.034,3.696-2.711,6.027-7.043,6.071-3.583.037-7.17-.052-10.748.087-.699.027-1.842.732-1.976,1.31-1.185,5.145-2.189,10.332-3.304,15.789,6.651,0,12.945.078,19.235-.054,1.588-.033,3.217-.59,4.735-1.153,11.139-4.134,17.269-14.905,15.197-26.584-1.95-10.99-11.693-18.972-23.314-19.019ZM35.005,96.351c8.614-.054,15.595,6.914,15.582,15.555-.013,8.504-6.869,15.34-15.475,15.43-8.528.089-15.515-7.001-15.451-15.678.062-8.43,6.902-15.253,15.344-15.307Z"/>
    <path class="st3" d="M108.599,79.522c-19.153,0-33.511,13.54-33.511,32.339,0,18.681,14.131,32.343,35.847,32.343,10.551,0,18.876-3.043,24.684-8.843.717-.716.698-1.894.011-2.639l-7.975-8.644c-.277-.3-.74-.309-1.044-.036-4.174,3.746-8.841,5.569-15.212,5.569-9.572,0-16.231-4.79-17.981-12.612h45.415c1.193,0,2.183-.914,2.288-2.103.088-.993.166-1.993.166-2.802,0-20.195-14.244-32.571-32.689-32.571ZM93.182,106.375c1.286-8.058,7.244-13.076,15.531-13.076,8.172,0,14.13,5.136,15.408,13.076h-30.939Z"/>
    <path class="st3" d="M102.23,72.399h8.794c.543,0,1.07-.184,1.494-.522l16.158-12.856c1.427-1.136.624-3.434-1.2-3.434h-13.503c-.376,0-.736.156-.993.43l-12.208,13.018c-1.196,1.276-.292,3.364,1.457,3.364Z"/>
    <path class="st3" d="M184.453,79.522c-19.967,0-34.561,13.426-34.561,32.339s14.595,32.343,34.561,32.343,34.439-13.43,34.439-32.343-14.472-32.339-34.439-32.339ZM184.453,129.259c-9.108,0-16.117-6.54-16.117-17.399s7.008-17.395,16.117-17.395,15.994,6.536,15.994,17.395-6.886,17.399-15.994,17.399Z"/>
    <path class="st3" d="M269.284,79.522c-7.882,0-14.327,2.357-18.851,7.175-.322.343-.88.142-.88-.328v-3.859c0-1.135-.92-2.055-2.055-2.055h-14.843c-.274,0-.497.222-.497.497v86.269c0,.355.288.643.643.643h15.426c1.174,0,2.127-.952,2.127-2.126l.012-27.876c0-.46.541-.667.868-.344,4.587,4.521,10.7,6.687,18.049,6.687,17.631,0,31.289-12.612,31.289-32.343s-13.658-32.339-31.289-32.339ZM266.134,129.259c-9.108,0-15.995-6.54-15.995-17.399s6.886-17.395,15.995-17.395,15.994,6.536,15.994,17.395-6.886,17.399-15.994,17.399Z"/>
    <path class="st3" d="M338.122,79.522c-9.583,0-19.278,2.445-26.129,6.936-.552.362-.724,1.095-.422,1.682l5.316,10.351c.363.706,1.248.898,1.903.449,4.511-3.086,10.798-4.942,16.881-4.942,9.808,0,14.48,4.554,14.48,12.376h-14.48c-19.145,0-26.967,7.704-26.967,18.795,0,10.858,8.75,19.035,23.467,19.035,9.222,0,15.758-3.036,19.145-8.758v6.081c0,.962.78,1.742,1.742,1.742h13.561c.962,0,1.742-.78,1.742-1.742v-34.101c0-19.031-11.086-27.903-30.239-27.903ZM350.152,123.419c-2.1,5.722-7.358,8.522-13.43,8.522-6.422,0-10.272-3.036-10.272-7.586,0-4.204,2.686-7.358,11.208-7.358h12.494v6.422Z"/>
    <rect class="st3" x="385.959" y="56.637" width="18.208" height="86.631" rx="1.443" ry="1.443"/>
  </g>
</svg>